<?xml version="1.0" encoding="utf-8"?>
<!-- Generator: Adobe Illustrator 23.0.6, SVG Export Plug-In . SVG Version: 6.00 Build 0)  -->
<svg version="1.1" id="Ebene_1" xmlns="http://www.w3.org/2000/svg" xmlns:xlink="http://www.w3.org/1999/xlink" x="0px" y="0px"
	 viewBox="0 0 400 400" style="enable-background:new 0 0 400 400;" xml:space="preserve">
<style type="text/css">
	.st0{fill:#A3007D;stroke:#A3007D;stroke-width:10;stroke-miterlimit:10;}
	.st1{fill:none;stroke:#A3007D;stroke-width:10;stroke-miterlimit:10;}
	.st2{fill:#FFFFFF;}
	.st3{font-family:'HDADINOfficeBold';}
	.st4{font-size:242.1284px;}
	.st5{fill:#020202;}
</style>
<title>ext_icon</title>
<path class="st0" d="M5.5,344.2c0,26.8,21.9,51.1,48.7,51.1l0,0h289.7c26.8,0,51.1-21.9,51.1-51.1l0,0V178.6H5.5
	C5.5,178.6,5.5,346.6,5.5,344.2z"/>
<path class="st1" d="M394.9,54.5c0-26.8-21.9-48.7-51.1-48.7l0,0H54.1C27.4,5.8,5.5,27.7,5.5,54.5V220h389.5V54.5z"/>
<text transform="matrix(1 0 0 1 62.6712 376.6094)" class="st2 st3 st4">SL</text>
<g>
	<path class="st5" d="M85.2,58.6v83.8H65.4V58.6H38.9V40.9h72.9v17.7H85.2z"/>
	<path class="st5" d="M183.9,114.6c0,5-0.9,9.5-2.6,13.3c-1.7,3.8-4,7-7,9.5c-2.9,2.5-6.4,4.4-10.3,5.7c-3.9,1.3-8,1.9-12.4,1.9
		c-4.2,0-8.2-0.6-12-1.7c-3.8-1.1-7.3-2.9-10.3-5.3c-3-2.4-5.4-5.5-7.2-9.3c-1.8-3.8-2.8-8.3-2.9-13.6h18.5c0.1,2.3,0.5,4.3,1.3,5.9
		c0.8,1.7,1.8,3,3,4.1c1.2,1.1,2.7,1.9,4.3,2.4c1.7,0.5,3.4,0.8,5.2,0.8c4,0,7.3-1.2,9.8-3.6c2.6-2.4,3.9-5.9,3.9-10.5
		c0-4.3-1.2-7.7-3.7-10.2c-2.5-2.5-6-3.8-10.6-3.8h-2.7V84.1h2.7c4.6,0,7.8-1.2,9.8-3.7c2-2.5,3-5.5,3-9.1c0-4.3-1.2-7.5-3.7-9.7
		c-2.5-2.2-5.4-3.3-8.7-3.3c-3.5,0-6.4,1.1-8.8,3.2c-2.3,2.1-3.6,5.2-3.8,9.1h-18.5c0.1-4.6,1-8.6,2.6-12.2c1.7-3.6,3.9-6.6,6.6-9.1
		c2.8-2.5,6-4.4,9.8-5.7c3.8-1.3,7.8-2,12-2c4.5,0,8.6,0.7,12.4,2.1c3.8,1.4,7.1,3.4,9.8,6c2.8,2.6,4.9,5.6,6.4,9.2
		c1.5,3.6,2.3,7.5,2.3,11.8c0,5.5-1.1,9.9-3.4,13.2c-2.2,3.3-5,5.8-8.3,7.6c3.6,1.9,6.7,4.7,9.3,8.3
		C182.6,103.5,183.9,108.4,183.9,114.6z"/>
	<path class="st5" d="M274.4,107.6c0,5.4-1,10.3-2.9,14.7c-1.9,4.4-4.6,8.1-8,11.2c-3.4,3.1-7.3,5.5-11.8,7.2
		c-4.5,1.7-9.4,2.6-14.6,2.6c-5.2,0-10.1-0.9-14.6-2.6c-4.5-1.7-8.5-4.1-11.8-7.2c-3.4-3.1-6-6.8-8-11.2c-1.9-4.4-2.9-9.3-2.9-14.7
		V40.9h19.8v66c0,5.9,1.6,10.5,4.7,13.8s7.4,4.9,12.8,4.9c5.4,0,9.7-1.6,12.9-4.9c3.2-3.3,4.8-7.9,4.8-13.8v-66h19.7V107.6z"/>
	<path class="st5" d="M368,72.6c0,4.3-0.8,8.3-2.3,12.2c-1.5,3.8-3.7,7.2-6.6,10.1c-2.9,2.9-6.4,5.2-10.6,6.8
		c-4.1,1.7-8.8,2.5-14,2.5h-19.5v38.2h-19.8V40.9h39.4c5.2,0,9.9,0.8,14,2.5c4.1,1.7,7.7,3.9,10.6,6.8c2.9,2.9,5.1,6.3,6.6,10.1
		C367.2,64.2,368,68.3,368,72.6z M348.2,72.6c0-4.2-1.3-7.6-3.9-10.1c-2.6-2.6-6.2-3.9-10.8-3.9h-18.5v27.8h18.5
		c4.6,0,8.1-1.3,10.8-3.8C346.8,80.1,348.2,76.7,348.2,72.6z"/>
</g>
</svg>
