<?xml version="1.0" encoding="utf-8"?>
<!-- Generator: Adobe Illustrator 19.2.1, SVG Export Plug-In . SVG Version: 6.00 Build 0)  -->
<svg version="1.1" id="Ebene_1" xmlns="http://www.w3.org/2000/svg" xmlns:xlink="http://www.w3.org/1999/xlink" x="0px" y="0px"
	 viewBox="0 0 32 20" style="enable-background:new 0 0 32 20;" xml:space="preserve">
<style type="text/css">
	.st0{fill:#040608;}
	.st1{fill:#FFF9F6;}
	.st2{fill:#1D4E9D;}
</style>
<title>Layer 1</title>
<title>Layer 1</title>
<title>Layer 1</title>
<title>Layer 1</title>
<rect y="0" class="st0" width="32" height="20"/>
<path class="st1" d="M1.6,2.5H0.9C0.7,2.5,0.4,2.3,0.4,2V1.1c0-0.3,0.2-0.5,0.5-0.5h0.6c0.3,0,0.5,0.2,0.5,0.5V2
	C2.1,2.3,1.8,2.5,1.6,2.5z"/>
<path class="st1" d="M3.8,2.5H3.2C2.9,2.5,2.7,2.3,2.7,2V1.1c0-0.3,0.2-0.5,0.5-0.5h0.6c0.3,0,0.5,0.2,0.5,0.5V2
	C4.3,2.3,4.1,2.5,3.8,2.5z"/>
<path class="st1" d="M6.1,2.5H5.5C5.2,2.5,5,2.3,5,2V1.1c0-0.3,0.2-0.5,0.5-0.5h0.6c0.3,0,0.5,0.2,0.5,0.5V2
	C6.6,2.3,6.4,2.5,6.1,2.5z"/>
<path class="st1" d="M8.4,2.5H7.8C7.5,2.5,7.3,2.3,7.3,2V1.1c0-0.3,0.2-0.5,0.5-0.5h0.6c0.3,0,0.5,0.2,0.5,0.5V2
	C8.9,2.3,8.7,2.5,8.4,2.5z"/>
<path class="st1" d="M10.7,2.5H10C9.8,2.5,9.5,2.3,9.5,2V1.1c0-0.3,0.2-0.5,0.5-0.5h0.6c0.3,0,0.5,0.2,0.5,0.5V2
	C11.2,2.3,10.9,2.5,10.7,2.5z"/>
<path class="st1" d="M12.9,2.5h-0.6c-0.3,0-0.5-0.2-0.5-0.5V1.1c0-0.3,0.2-0.5,0.5-0.5h0.6c0.3,0,0.5,0.2,0.5,0.5V2
	C13.4,2.3,13.2,2.5,12.9,2.5z"/>
<path class="st1" d="M15.2,2.5h-0.6c-0.3,0-0.5-0.2-0.5-0.5V1.1c0-0.3,0.2-0.5,0.5-0.5h0.6c0.3,0,0.5,0.2,0.5,0.5V2
	C15.7,2.3,15.5,2.5,15.2,2.5z"/>
<path class="st1" d="M17.5,2.5h-0.6c-0.3,0-0.5-0.2-0.5-0.5V1.1c0-0.3,0.2-0.5,0.5-0.5h0.6c0.3,0,0.5,0.2,0.5,0.5V2
	C18,2.3,17.8,2.5,17.5,2.5z"/>
<path class="st1" d="M19.8,2.5h-0.6c-0.3,0-0.5-0.2-0.5-0.5V1.1c0-0.3,0.2-0.5,0.5-0.5h0.6c0.3,0,0.5,0.2,0.5,0.5V2
	C20.3,2.3,20,2.5,19.8,2.5z"/>
<path class="st1" d="M22,2.5h-0.6c-0.3,0-0.5-0.2-0.5-0.5V1.1c0-0.3,0.2-0.5,0.5-0.5H22c0.3,0,0.5,0.2,0.5,0.5V2
	C22.6,2.3,22.3,2.5,22,2.5z"/>
<path class="st1" d="M24.3,2.5h-0.6c-0.3,0-0.5-0.2-0.5-0.5V1.1c0-0.3,0.2-0.5,0.5-0.5h0.6c0.3,0,0.5,0.2,0.5,0.5V2
	C24.8,2.3,24.6,2.5,24.3,2.5z"/>
<path class="st1" d="M26.6,2.5H26c-0.3,0-0.5-0.2-0.5-0.5V1.1c0-0.3,0.2-0.5,0.5-0.5h0.6c0.3,0,0.5,0.2,0.5,0.5V2
	C27.1,2.3,26.9,2.5,26.6,2.5z"/>
<path class="st1" d="M28.9,2.5h-0.6c-0.3,0-0.5-0.2-0.5-0.5V1.1c0-0.3,0.2-0.5,0.5-0.5h0.6c0.3,0,0.5,0.2,0.5,0.5V2
	C29.4,2.3,29.2,2.5,28.9,2.5z"/>
<path class="st1" d="M31.2,2.5h-0.6C30.3,2.5,30,2.3,30,2V1.1c0-0.3,0.2-0.5,0.5-0.5h0.6c0.3,0,0.5,0.2,0.5,0.5V2
	C31.7,2.3,31.4,2.5,31.2,2.5z"/>
<path class="st1" d="M1.6,19H0.9c-0.3,0-0.5-0.2-0.5-0.5v-0.9c0-0.3,0.2-0.5,0.5-0.5h0.6c0.3,0,0.5,0.2,0.5,0.5v0.9
	C2.1,18.7,1.8,19,1.6,19z"/>
<path class="st1" d="M3.8,19H3.2c-0.3,0-0.5-0.2-0.5-0.5v-0.9c0-0.3,0.2-0.5,0.5-0.5h0.6c0.3,0,0.5,0.2,0.5,0.5v0.9
	C4.3,18.7,4.1,19,3.8,19z"/>
<path class="st1" d="M6.1,19H5.5C5.2,19,5,18.7,5,18.5v-0.9c0-0.3,0.2-0.5,0.5-0.5h0.6c0.3,0,0.5,0.2,0.5,0.5v0.9
	C6.6,18.7,6.4,19,6.1,19z"/>
<path class="st1" d="M8.4,19H7.8c-0.3,0-0.5-0.2-0.5-0.5v-0.9c0-0.3,0.2-0.5,0.5-0.5h0.6c0.3,0,0.5,0.2,0.5,0.5v0.9
	C8.9,18.7,8.7,19,8.4,19z"/>
<path class="st1" d="M10.7,19H10c-0.3,0-0.5-0.2-0.5-0.5v-0.9c0-0.3,0.2-0.5,0.5-0.5h0.6c0.3,0,0.5,0.2,0.5,0.5v0.9
	C11.2,18.7,10.9,19,10.7,19z"/>
<path class="st1" d="M12.9,19h-0.6c-0.3,0-0.5-0.2-0.5-0.5v-0.9c0-0.3,0.2-0.5,0.5-0.5h0.6c0.3,0,0.5,0.2,0.5,0.5v0.9
	C13.4,18.7,13.2,19,12.9,19z"/>
<path class="st1" d="M15.2,19h-0.6c-0.3,0-0.5-0.2-0.5-0.5v-0.9c0-0.3,0.2-0.5,0.5-0.5h0.6c0.3,0,0.5,0.2,0.5,0.5v0.9
	C15.7,18.7,15.5,19,15.2,19z"/>
<path class="st1" d="M17.5,19h-0.6c-0.3,0-0.5-0.2-0.5-0.5v-0.9c0-0.3,0.2-0.5,0.5-0.5h0.6c0.3,0,0.5,0.2,0.5,0.5v0.9
	C18,18.7,17.8,19,17.5,19z"/>
<path class="st1" d="M19.8,19h-0.6c-0.3,0-0.5-0.2-0.5-0.5v-0.9c0-0.3,0.2-0.5,0.5-0.5h0.6c0.3,0,0.5,0.2,0.5,0.5v0.9
	C20.3,18.7,20,19,19.8,19z"/>
<path class="st1" d="M22,19h-0.6c-0.3,0-0.5-0.2-0.5-0.5v-0.9c0-0.3,0.2-0.5,0.5-0.5H22c0.3,0,0.5,0.2,0.5,0.5v0.9
	C22.6,18.7,22.3,19,22,19z"/>
<path class="st1" d="M24.3,19h-0.6c-0.3,0-0.5-0.2-0.5-0.5v-0.9c0-0.3,0.2-0.5,0.5-0.5h0.6c0.3,0,0.5,0.2,0.5,0.5v0.9
	C24.8,18.7,24.6,19,24.3,19z"/>
<path class="st1" d="M26.6,19H26c-0.3,0-0.5-0.2-0.5-0.5v-0.9c0-0.3,0.2-0.5,0.5-0.5h0.6c0.3,0,0.5,0.2,0.5,0.5v0.9
	C27.1,18.7,26.9,19,26.6,19z"/>
<path class="st1" d="M28.9,19h-0.6c-0.3,0-0.5-0.2-0.5-0.5v-0.9c0-0.3,0.2-0.5,0.5-0.5h0.6c0.3,0,0.5,0.2,0.5,0.5v0.9
	C29.4,18.7,29.2,19,28.9,19z"/>
<path class="st1" d="M31.2,19h-0.6c-0.3,0-0.5-0.2-0.5-0.5v-0.9c0-0.3,0.2-0.5,0.5-0.5h0.6c0.3,0,0.5,0.2,0.5,0.5v0.9
	C31.7,18.7,31.4,19,31.2,19z"/>
<rect x="7.5" y="3.9" class="st2" width="17" height="12.2"/>
<rect x="26.1" y="3.9" class="st2" width="5.9" height="12.2"/>
<rect y="3.9" class="st2" width="5.9" height="12.2"/>
</svg>
